<svg version="1" xmlns="http://www.w3.org/2000/svg" width="194" height="250" viewBox="0 0 595 750"><path d="M306 2c-5 0-15 3-22 5-15 5-23 5-40 1-14-3-37-4-46-2-8 2-19 7-25 13l-5 4-1 14-3 16c0 2-4 5-13 8-10 4-15 7-20 11-7 7-7 9-6 19l4 19c1 13 4 22 9 32l3 8-3 4c-5 7-7 14-7 24 1 8 1 10 4 17l3 8-4 6-23 24a437 437 0 0 0-82 101A229 229 0 0 0 4 491a183 183 0 0 0 13 48 1046 1046 0 0 0 79 183l8 9c5 6 14 11 23 12l81 6h161c32-2 89-6 95-8 3 0 12-9 18-16 5-9 10-18 16-34l18-42a1354 1354 0 0 0 74-202c0-19-3-30-16-52l-14-30a1305 1305 0 0 0-20-45l10-2c15-3 29-9 40-16l5-3v-6c-1-9-7-32-11-44-4-13-12-29-15-32-4-3-12-5-23-6-10 0-10 0-13 2l-3 3-13-8-11-8v-8c-1-11 0-36 3-50a425 425 0 0 0 8-54c4-24 4-39-1-50-2-4-3-5-9-8-7-4-15-5-34-8a1110 1110 0 0 1-75-13c-20-6-32-8-59-9-17 0-26 0-33 2zm56 6l17 3 9 3v12c1 12 2 17 2 8l1-5c2 1 2 1 0 7 0 3 2 4 2 1 2-5 1-10-1-13-3-4-2-11 2-8a369 369 0 0 0 4 33c1 6 1 6 1-5 0-9 0-12 2-13 1-1 1-2-1-4-1-3-1-8 1-9a410 410 0 0 0 5 31c2 9 2 17 2 23l-6 58c-4 27-5 40-4 54l-1 13-3 2c-2 0-1-35 3-75a1440 1440 0 0 0-9 75c-1 1-4-2-5-6v-21l3-31 1-41a896 896 0 0 0-7 98l-3 1-2-1v-21c0-24-1-24-3 1l-2 18c0 2-1 2-7 2-11-1-26-5-49-12a2449 2449 0 0 0-38-11 976 976 0 0 0-6-39c-6-31-7-43-8-62 0-18 1-35 4-45 1-3 1-4-5-2-5 1-5 4-1 4 3 0 3 0 3 5-2 14-3 34-3 45 0 17 1 29 6 48l6 35v10l-6-1-9-1-3-2-1-11c-1-12-1-11-3 2l-1 9-2-3c-2-3-2-8-1-22v-17l-2 17c-1 20-2 24-3 24-3 0-3-7-3-28 1-24 0-20-2 7l-2 17c-1-1-3-15-3-26l2-30 1-33c0-16 2-34 5-38l2-14c1-9 2-11 3-11 2 1 3 6 2 13l-1 7 5-2c5-3 5-4 1-4-3 0-3 0-3-2l2-6c0-3 1-3 3-2h11c7 0 11 0 22-4 12-4 13-4 30-5l21-1c5-1 15 0 25 1zM221 9v4a85 85 0 0 0 0 19v-6h3c4 1 5-2 2-3s-3-2-3-8V8l4 1 2 1v23l-1 23c1 0 2-9 2-20 2-22 3-25 4-25 1 1 1 26-1 39l-5 31c-5 28-6 38-5 53l4 32-25 1c-25 1-45 3-38 4h70c22 2 37 5 73 16 43 14 51 15 104 16 42 1 50 2 67 7l14 5 16 6 22 11c10 6 13 8 14 11l2 3c0 2-3 1-7-2a258 258 0 0 0-147-36c-51 0-47 1-92-15-11-4-19-6-33-8l-22-5-34-1-40 1c-16 2-14 2-15-3 0-3 1-5 4-9 3-5 3-5 1-7l-3-1c-3 0-3-2 0-5 3-2 3-2 5-1l3 6c0 4 2 7 3 6a360 360 0 0 0-1-39l-1 12c0 11 0 11-2 8-3-5-3-11-1-24l2-17v-4l-1 3a246 246 0 0 0-6 41c-1 1-4-3-4-6 0-2 0-2-1-1l-1 3-1 5c-1 2-1 2-2 0l-2-2c-1 0-1-11 1-22l1-14-3 14-2 14-3-6c-1-6-1-13 2-28a293 293 0 0 0 5-23c1-1 1-1-1-1-3-1-9 1-11 4s-3 2-2-2c0-3 1-4 18-12l17-9v9c-3 31 0 67 7 87 3 11 4 8 1-5a794 794 0 0 1-5-112l1-13 5-5c8-9 19-13 33-13l9 1zm220 15c28 4 48 7 55 10 7 2 12 8 12 11l-1 3-3 18a523 523 0 0 1-10 49c-1-2 0-7 4-33 5-28 5-31 4-33-2-2-6-4-8-3-1 2 1 4 4 4l2 1a976 976 0 0 1-12 59c-2-2-2-6 0-16l2-13c0-6-2-2-3 10-3 14-4 17-7 19-13 6-22 20-28 43a503 503 0 0 0-6 32c3-16 12-44 18-56 5-9 13-15 20-15 4 0 5 1 5 4s2 4 2 2c0-4 2 1 4 8 1 7 1 13-1 14s-3 17-3 38c1 20 1 22-1 16a384 384 0 0 1-5-56l-1 21v18l-2-20c0-22 0-26 5-26 3 0 4-2 1-3-3-2-9 5-11 12l-1 3c-3-1-3 6-3 32 0 27 0 27-3 27l-15-3-17-2c-6 0-6-1-5-10s2-24 1-25l-4 30c0 4 0 4-2 4-4 0-4-3-2-20v-21l-3 20c-2 15-2 20-4 21-1 1-2 1-2-2v-16l2-26v-11l-2 18a825 825 0 0 0-6 37c-2 0-1-19 2-57 4-37 4-45 3-43s-3 18-4 45c-3 34-4 49-7 54l-1 3-1-4c-2-7 0-36 3-60 4-39 4-43 3-74l-1-30 3 1 1 14 1 14c1 1 1-7 1-19 0-20 0-21 2-21l25 3zm70 37a1333 1333 0 0 0-14 129c0 19-2 4-2-22v-18c1 5 1 5 2 3 1-3 2-5 1-23 0-8 0-12 3-23a398 398 0 0 0 9-49l1 3zm-281 56c-2 19-2 22-3 19a166 166 0 0 1 3-54v35zm-86-29l-2 15-2 13c0 2 0 2-2-2-4-13-3-23 1-28s5-4 5 2zm335 98c1 19 1 23-1 20s-5-50-2-57a822 822 0 0 0 3 37zm-250 5l7 1 3 42a951 951 0 0 1-2 90v3l2-3a1371 1371 0 0 0 2-132l4 36a2032 2032 0 0 1 3 133V222l-1-19v-8c3-4 3 2 5 58a1063 1063 0 0 1 1 104 806 806 0 0 0 1-123v-30a544 544 0 0 1 6 60l1 35c2-2 3-22 2-44-2-42-2-57-1-57l2 1c2 1 3 26 3 72a891 891 0 0 0 2-6c0-34 1-65 3-65 3 0 5 62 2 90a581 581 0 0 0 5 110l-3-21c-3-21-3-42 0-71 3-22 3-45 2-84l-1-23 5 1 29 7 24 7v3c1 4 3 5 4 1 0-3 1-3 2-3l4 1 1 7c1 8 2 10 3 10l1-7c0-8 1-10 3-8 1 0 2 5 2 11l2 10c2 2 3-3 3-11v-8c2-3 3 4 4 13 2 22 3 24 3 5v-18h3c3 0 3-1 5 24 2 21 2 21 2 1 0-18 1-25 4-25 2 0 3 3 3 10a267 267 0 0 0 5 50l-1-14c-2-15-2-38 0-43 2-4 2-4 4 0 1 2 2 8 2 18 0 11 1 21 3 32l2 15v-10l-2-27c-1-15-1-30 1-30l2 2 2 16c0 13 0 17 4 36l5 23h1l1-16-2-59c1-3 3-4 4-1a694 694 0 0 1 4 43l1-22v-23l3 1a1521 1521 0 0 0 9 88l1 4v-5l-2-31c-4-34-4-57 0-57 1 0 2 5 3 32l2 27 2 8v-10l-1-19v-32c2-8 4 1 7 30a267 267 0 0 0 3 21c-2-11-2-49-1-52l1-4 1 3c1 2 2 8 2 17l3 21v6c-1 2 4 8 9 10 4 2 5 3 6 7 1 3 2 4 5 6l11 2 12 3 10 3 5 1-9 15c-2 2-3 2-8 3-14 0-23 11-23 29-1 7-1 7-5 13-6 8-8 11-9 17l1 9c2 4 3 14 1 21-2 4-2 6 0 19l3 18c2 4 2 5 6 5 9 2 18-1 19-6l-3-17c-6-22-7-26-7-35v-10l4-3c3-4 6-5 11-3 3 1 13 0 20-3 11-5 15-12 15-24 0-6 0-8-4-15l-4-8 3-4 5-5 5 11c2 6 9 22 16 34 14 29 21 45 26 60 4 12 4 13 4 20-2 19-11 48-28 90a574 574 0 0 0-30 77 822 822 0 0 0-43 104c-5 10-7 12-11 16-4 3-6 4-8 3l-8 1-7 2c-3 0-3 0-2-1 4-3 1-3-5 0-8 3-10 4-14 2-2-2-2-2-8 1-7 4-8 4-8 1 0-2 0-2-6 0l-10 2c-3 0-3 0-2-1 3-4 0-4-4-1-5 3-13 4-10 2l1-3-6 2c-8 4-12 4-11 1 0-3-1-3-9 1l-7 2h-62l-74-2c-32-2-29-2-31-6l-3-4v6l1 1c-2 2-5 1-9-3-4-5-7-5-3-1l1 4c-2 1-7-1-10-5-4-4-7-4-4 1 1 2 1 2-1 2-3 0-5-2-7-5-1-3-4-2-3 1 0 5-5 3-6-1l-3-3c-2 0-3 2-2 3l1 1c0 2-2 1-6-2-2-3-3-4-5-2-1 1-2 0-7-4-9-9-26-38-32-55l-5-11c-3-4-6-11-14-32l-7-19-8-21a1995 1995 0 0 0-26-78c-2-1-7-33-9-49-2-15-1-41 2-52a494 494 0 0 1 22-64c2-9 21-37 36-54l24-26a1550 1550 0 0 0 33-36l17-16c3-5 7-9 8-9 2 0 1 4-4 11s-8 11-6 11l17-23c3-4 2-6-1-3-2 2-3 0 0-3 1-2 7-5 10-5s3 6-1 19l-4 12a154 154 0 0 0 12-31c2 0 1 15-2 22a1356 1356 0 0 0 6-15l1-8h8c11-1 36 0 43 1zm334 33c4 3 5 3 9 15 8 20 16 48 14 49l-6-1c-5-2-5-2-5-6a616 616 0 0 1-22-61c0-1 4 0 10 4zm-155 17l3 44c2 11-3-4-5-18-3-17-2-47 0-44 1 1 2 7 2 18zm49-7l2 16c0 8-1 15-3 15-3 0-5-25-3-35 2-7 4-5 4 4zm8 6c0 10 2 14 3 12v-9l1-10v-4l2 3 1 12c0 19 3 20 4 1 1-14 2-17 3-6l2 12c1 4 1 4-2 8-2 2-3 6-3 7l-1 4c-2 1-2 1-3-2l-2-6c0-3-3-7-5-7-3-1-4-6-3-17 0-13 2-12 3 2zm47 9c15 4 20 26 9 38-5 6-16 9-23 6-3-1-3-1-2-3 6-9 0-24-9-26-4 0-5-2-2-6 4-8 17-12 27-9zm55 28a1223 1223 0 0 0-19 16c0-4 3-8 10-13l8-6 1 3zm-65 49c8 2 15 9 18 17v11c-3 9-10 15-17 17-1 1-2 1-2-1 0-6-9-12-20-14-5 0-6 0-6-3-2-8-1-13 3-19s6-8 11-9c4-1 7-1 13 1zm-29 44c2 2 4 8 3 9l-3-2c-2-2-4-1-2 2 1 2 1 2-3 4-6 3-7 2-6-4 0-6 1-8 5-9h6zm2 36l4 18c6 20 6 20 2 21l-4 2c-2 0-1-3 1-4s1-3-2-2c-3 0-5-10-6-26 0-12 0-13 2-13s2 1 3 4z"/><path d="M195 18c-2 7-2 57 0 73l8 36a375 375 0 0 1-7-97c0-4 1-5 3-5l3-2c0-2 0-2-3-2l-3 1 1-4c0-5-1-5-2 0zM479 123c-4 1-5 1-7 6a138 138 0 0 0-14 68c1 1 1-2 1-10 0-19 9-49 18-59 4-3 4-3 7-3 2 1 3 1 3-1s-3-3-8-1zM186 195a990 990 0 0 1 0 0zM135 286a416 416 0 0 1-32 51c1 1 8-8 12-15l9-13 4-6 6-11c6-11 7-12 5-12l-4 6zM123 291a627 627 0 0 1-42 67l1-1 2-4 3-4 1-3 8-9 9-14a207 207 0 0 0 21-32c1-3-2-3-3-1zM260 305a718 718 0 0 0 1 1c-1-3-1-3-1-1zM98 398c-6 36-5 44 4 75l7 22c2 12 6 20 19 47a385 385 0 0 1 31 68c1 0 2 1 2 3l1 3c2 1 0-6-2-9l-7-15c-4-14-11-28-20-44l-11-25-8-19-9-29-5-21c-4-12-4-23-1-48 3-21 2-27-1-8zM24 452l1 7 2 11a888 888 0 0 0 45 141 1561 1561 0 0 1-48-159zM406 465l-8 49-8 47a398 398 0 0 0 16-96zM40 482a629 629 0 0 0 36 121l5 15 7 18a2312 2312 0 0 1 36 83l1-1c-41-95-64-160-80-219-6-25-6-25-5-17zM22 484c0 9 15 60 28 96a1177 1177 0 0 1 19 55 375 375 0 0 1 20 47c1 2 3 5 3 8l2 6 4 7c2 7 6 14 7 13l-9-22a1737 1737 0 0 1-74-210zM562 488l-1 1-1 3-3 7-5 13a673 673 0 0 1-33 82l-12 28-4 11-6 14c-5 12-8 19-6 19l2-3 10-23a3579 3579 0 0 0 59-153zM397 488l-4 18a1786 1786 0 0 1-23 112 774 774 0 0 0 27-130zM382 520l-4 26-10 45c-10 41-13 53-13 58l-1 5 2-4a2130 2130 0 0 0 30-129c1-7 1-12-1-12l-3 11z"/><path d="M57 519a219 219 0 0 0 15 48 275 275 0 0 0 7 24l7 18a2589 2589 0 0 1 36 90l8 14-8-21a1489 1489 0 0 1-65-173zM542 521l-16 37-41 97a2140 2140 0 0 0 57-134zM372 527l-1 5-1 6a832 832 0 0 0-4 30c5-17 9-34 9-39s-1-7-3-2zM527 539a2090 2090 0 0 0-44 101 134 134 0 0 0-11 27l-3 6a3485 3485 0 0 0 58-134zM128 557a1211 1211 0 0 0 26 94 449 449 0 0 1-18-69l-3-13-2-9-2-7-1 4zM509 562l-2 6-8 17-6 15c-1 3-4 11-9 19l-7 17-5 12-5 13a819 819 0 0 1 33-72c8-16 12-26 10-27h-1zM160 573a478 478 0 0 0 11 53l6 22c6 21 10 34 10 40 1 4 4 11 5 10l-9-39a1178 1178 0 0 1-23-86zM121 575a593 593 0 0 0 26 98l3 13 2 3a2499 2499 0 0 1-31-113zM74 621l5 14 6 17 8 21a372 372 0 0 1 20 43c1-1-7-22-24-62a514 514 0 0 1-15-33zM154 623a809 809 0 0 0 19 66l-8-31a240 240 0 0 1-9-33l-2-2zM123 625l9 35 5 16c1 5 2 8 4 10l3 3-6-19a3117 3117 0 0 1-15-45zM165 629a1265 1265 0 0 0 18 65 333 333 0 0 0-18-65z"/></svg>